# xmcd
#
# Track frame offsets: 
#        150
#        1579
#        25353
#        46462
#        64617
#        79407
#        100486
#        107936
#        126303
#        129888
#        145553
#        164222
#        184067
#        201626
#        227964
#        248072
#        267672
#
# Disc length: 3805 seconds
#
# Revision: 4
# Processed by: cddbd v1.5.2PL0 Copyright (c) Steve Scherf et al.
# Submitted via: ExactAudioCopyFreeDBPlugin 1.0
#
DISCID=fb0edb11
DTITLE=Brad Paisley - Wheelhouse
DYEAR=2013
DGENRE=Country
TTITLE0=Bon Voyage
TTITLE1=Southern Comfort Zone
TTITLE2=Beat This Summer
TTITLE3=Outstanding In Our Field
TTITLE4=Pressing On A Bruise
TTITLE5=I Can't Change The World
TTITLE6=幽女
TTITLE7=Karate
TTITLE8=Death Of A Married Man
TTITLE9=Harvey Bodine
TTITLE10=Tin Can On A String
TTITLE11=Death Of A Single Man
TTITLE12=The Mona Lisa
TTITLE13=Accidental Racist
TTITLE14=Runaway Train
TTITLE15=Those Crazy Christians
TTITLE16=Officially Alive
EXTD=
EXTT0=
EXTT1=
EXTT2=
EXTT3=
EXTT4=
EXTT5=
EXTT6=
EXTT7=
EXTT8=
EXTT9=
EXTT10=
EXTT11=
EXTT12=
EXTT13=
EXTT14=
EXTT15=
EXTT16=
PLAYORDER=
